<?xml version="1.0" standalone="no"?>
<!DOCTYPE svg PUBLIC "-//W3C//DTD SVG 20010904//EN"
 "http://www.w3.org/TR/2001/REC-SVG-20010904/DTD/svg10.dtd">
<svg version="1.0" xmlns="http://www.w3.org/2000/svg"
 width="374.000000pt" height="135.000000pt" viewBox="0 0 374.000000 135.000000"
 preserveAspectRatio="xMidYMid meet">

<g transform="translate(0.000000,135.000000) scale(0.100000,-0.100000)"
fill="#000000" stroke="none">
<path d="M2398 1073 c-14 -21 -28 -51 -32 -67 -4 -17 -16 -41 -25 -55 -10 -14
-26 -55 -35 -91 -9 -35 -23 -71 -30 -80 -20 -23 -36 -78 -36 -126 0 -24 -4
-44 -10 -44 -6 0 -10 30 -10 69 0 39 -4 72 -9 76 -6 3 -10 13 -10 23 0 27 -17
112 -24 118 -3 3 1 27 9 52 18 60 18 72 -1 72 -9 0 -28 -28 -46 -65 -26 -55
-33 -64 -45 -54 -10 8 -18 9 -25 2 -19 -19 -59 -195 -59 -260 0 -49 -5 -74
-21 -100 -17 -27 -20 -43 -15 -76 4 -23 7 -80 9 -127 2 -67 5 -85 17 -85 17 0
32 51 35 121 1 28 9 64 18 80 16 29 36 170 38 260 1 60 17 109 18 55 1 -20 11
-48 26 -67 14 -18 25 -41 25 -51 0 -10 7 -36 15 -58 8 -22 14 -54 15 -72 0
-17 5 -33 11 -35 7 -2 17 -19 23 -38 15 -48 39 -45 47 5 14 85 29 142 48 179
12 23 18 49 15 62 -9 35 5 49 23 24 13 -18 13 -29 3 -63 -14 -50 0 -185 23
-220 8 -13 12 -35 10 -53 -3 -18 0 -35 6 -38 6 -4 11 -15 11 -25 0 -10 7 -24
15 -31 8 -7 15 -23 15 -36 0 -19 5 -24 24 -24 23 0 23 2 14 38 -13 49 -38 202
-39 237 0 11 2 47 5 79 3 33 1 80 -5 105 -15 66 -32 198 -32 253 0 26 10 69
22 98 32 75 12 97 -31 33z m11 -39 c-24 -53 -26 -93 -10 -199 30 -189 35 -257
22 -303 -8 -32 -9 -48 0 -58 6 -7 9 -27 7 -44 -2 -18 3 -34 11 -39 9 -6 11
-18 7 -35 -4 -16 0 -38 9 -56 22 -42 19 -46 -11 -10 -15 17 -24 34 -20 37 3 3
1 12 -5 20 -6 7 -8 13 -3 13 5 0 3 4 -4 8 -9 6 -10 16 -3 34 8 21 6 29 -10 44
-22 19 -29 111 -7 98 7 -4 8 -3 4 5 -4 6 -11 9 -16 6 -14 -9 -17 52 -4 101 12
48 10 74 -8 74 -5 0 -8 6 -7 13 4 29 -2 47 -15 47 -17 0 -26 -31 -26 -91 0
-34 -6 -53 -22 -71 -15 -16 -23 -38 -24 -63 -2 -50 -32 -153 -33 -113 -1 15
-6 30 -11 33 -6 4 -8 10 -5 15 3 5 0 12 -6 16 -8 4 -9 3 -5 -4 4 -7 3 -12 -2
-12 -6 0 -12 24 -15 53 -6 65 -27 133 -51 169 -11 18 -17 40 -14 61 3 30 1 33
-22 33 -28 0 -27 1 -34 -106 -13 -199 -17 -225 -39 -241 -17 -14 -20 -26 -19
-75 2 -33 -2 -72 -7 -89 -9 -29 -9 -29 -12 15 -1 25 -1 58 0 73 1 15 -3 43 -9
62 -10 30 -8 39 16 80 24 42 26 53 20 109 -5 49 -2 75 14 121 11 32 20 69 20
82 0 19 5 23 29 23 20 0 32 6 36 19 3 11 13 25 22 33 9 7 14 8 10 2 -3 -6 1
-23 9 -39 8 -15 13 -30 10 -32 -2 -2 3 -32 10 -66 7 -34 14 -82 14 -107 1 -25
7 -63 14 -85 12 -39 12 -39 24 -17 7 12 15 51 19 87 3 36 10 65 15 65 5 0 6 5
3 10 -3 6 3 22 14 36 11 14 25 51 32 82 6 31 22 72 35 92 13 19 24 43 24 52 0
17 41 90 48 84 1 -2 -7 -25 -19 -52z m-234 -73 c-3 -12 -11 -21 -16 -21 -6 0
-8 3 -6 8 2 4 7 16 11 26 9 25 20 13 11 -13z"/>
<path d="M2346 893 c-6 -14 -5 -15 5 -6 7 7 10 15 7 18 -3 3 -9 -2 -12 -12z"/>
<path d="M2255 539 c-4 -6 -5 -12 -2 -15 2 -3 7 2 10 11 7 17 1 20 -8 4z"/>
<path d="M348 1025 c-22 -15 -51 -25 -71 -25 -19 0 -40 -7 -47 -15 -7 -8 -21
-15 -31 -15 -13 0 -19 -7 -19 -24 0 -14 5 -28 10 -31 6 -3 10 -27 10 -52 0
-29 6 -53 16 -64 11 -12 18 -43 21 -90 2 -40 7 -78 12 -83 10 -14 31 -113 31
-146 0 -80 9 -139 23 -167 10 -18 17 -43 17 -57 0 -14 5 -28 10 -31 6 -3 10
-17 10 -29 0 -28 28 -56 33 -35 3 8 9 30 14 49 12 41 9 110 -5 136 -6 11 -9
46 -7 79 2 32 0 67 -6 76 -12 23 5 34 21 14 7 -8 21 -15 32 -15 11 0 28 -10
38 -22 10 -13 24 -23 32 -24 7 0 20 -2 28 -3 8 0 23 -15 33 -32 11 -20 22 -29
32 -25 10 4 20 -3 27 -19 6 -14 19 -27 30 -30 10 -4 23 -16 30 -28 6 -12 22
-30 35 -40 12 -10 23 -26 23 -36 0 -10 9 -26 20 -36 11 -10 20 -24 20 -32 0
-7 7 -13 15 -13 33 0 -2 118 -49 168 -45 48 -66 76 -66 88 0 8 -9 19 -20 26
-11 7 -20 18 -20 24 0 14 -33 44 -48 44 -7 0 -30 18 -51 39 l-39 39 22 21 c12
12 28 21 34 21 37 0 100 222 72 255 -5 6 -10 26 -12 45 -2 29 -8 36 -28 38
-14 2 -29 10 -33 18 -4 8 -16 14 -25 14 -9 0 -39 11 -66 25 -61 31 -63 31
-108 0z m116 -21 c22 -14 24 -19 14 -32 -11 -13 -9 -13 12 1 31 22 37 21 43
-3 4 -15 14 -20 37 -20 30 0 31 -1 26 -40 -3 -25 0 -39 7 -37 13 2 10 -93 -4
-107 -5 -6 -9 -20 -9 -33 0 -13 -4 -23 -10 -23 -5 0 -10 -8 -10 -17 0 -23 -12
-41 -30 -45 -17 -4 -70 -55 -70 -68 0 -6 7 -10 17 -10 9 0 14 -3 10 -6 -7 -7
35 -50 46 -46 7 2 11 -14 8 -32 -1 -5 4 -4 12 2 19 16 53 -8 44 -32 -4 -10 -3
-14 3 -11 10 6 50 -33 50 -48 0 -5 12 -20 26 -33 14 -13 22 -29 19 -34 -3 -6
3 -10 14 -10 12 0 21 -4 21 -9 0 -5 5 -22 12 -38 6 -15 11 -31 10 -35 -1 -5 3
-8 10 -8 6 0 8 -3 5 -7 -4 -3 -1 -13 5 -22 9 -11 6 -10 -9 2 -12 10 -24 30
-28 44 -3 13 -33 52 -66 84 -33 33 -57 64 -54 70 6 9 -6 13 -36 10 -8 -1 -21
10 -27 24 -6 14 -18 25 -26 25 -8 0 -19 7 -24 16 -7 12 -11 13 -16 5 -5 -8
-14 -3 -27 14 -20 25 -18 51 3 39 7 -5 8 -2 4 5 -6 9 -12 9 -25 -3 -22 -20
-40 -20 -61 -1 -29 26 -41 -1 -31 -66 6 -34 5 -61 -1 -73 -8 -15 -6 -28 8 -54
14 -26 16 -37 6 -52 -9 -14 -8 -21 3 -30 11 -9 12 -16 2 -30 -14 -24 -37 -8
-37 26 0 13 -9 40 -20 60 -16 28 -20 47 -16 90 3 30 2 53 -3 50 -7 -5 -21 79
-22 139 0 10 -5 25 -11 32 -12 14 -15 33 -17 104 -1 31 -8 54 -22 70 -16 19
-19 31 -13 64 3 22 11 47 17 55 9 12 8 13 -2 3 -11 -9 -17 -8 -29 4 -13 13
-13 16 -1 24 38 26 57 32 85 31 20 -2 40 6 60 23 33 29 73 29 118 -1z"/>
<path d="M355 1000 c-3 -6 1 -7 9 -4 18 7 21 14 7 14 -6 0 -13 -4 -16 -10z"/>
<path d="M371 986 c2 -2 15 -9 29 -15 24 -11 24 -11 6 3 -16 13 -49 24 -35 12z"/>
<path d="M369 919 c-23 -11 -48 -18 -55 -15 -7 3 -17 -1 -22 -7 -14 -18 -23
-49 -13 -42 14 8 20 -18 9 -39 -7 -12 -7 -16 0 -12 11 6 25 -29 23 -56 -1 -9
3 -19 9 -23 5 -3 10 -17 10 -31 0 -13 4 -24 10 -24 5 0 7 -7 4 -15 -9 -24 4
-51 18 -37 9 9 15 9 25 0 10 -8 18 -7 32 6 11 10 26 19 35 20 21 3 57 37 50
47 -3 5 2 16 10 25 9 8 16 22 16 30 0 10 5 12 13 8 8 -6 8 -3 -1 9 -8 9 -11
25 -7 37 4 12 0 26 -10 37 -9 9 -14 24 -12 34 3 10 2 18 -2 17 -3 -1 -15 2
-26 6 -11 5 -26 10 -33 12 -7 2 -11 9 -10 15 5 19 -27 18 -73 -2z m71 -24 c7
-8 21 -15 31 -15 12 0 19 -7 19 -18 0 -10 5 -23 12 -30 17 -17 19 -64 4 -97
-8 -16 -17 -37 -19 -46 -7 -23 -77 -55 -107 -49 -20 4 -26 12 -28 40 -1 19 -7
39 -12 44 -6 6 -10 19 -10 31 0 12 -4 25 -9 31 -5 5 -11 28 -15 52 -5 36 -4
42 12 42 10 0 27 7 38 15 25 19 68 19 84 0z"/>
<path d="M470 620 c-9 -6 -10 -10 -3 -10 6 0 15 5 18 10 8 12 4 12 -15 0z"/>
<path d="M314 553 c16 -20 36 -23 36 -6 0 4 -3 3 -7 0 -3 -4 -16 1 -27 10 -21
18 -21 18 -2 -4z"/>
<path d="M326 482 c-3 -5 1 -9 9 -9 8 0 12 4 9 9 -3 4 -7 8 -9 8 -2 0 -6 -4
-9 -8z"/>
<path d="M684 886 c-3 -7 -4 -17 -3 -22 2 -5 -1 -19 -5 -32 -10 -29 10 -54 38
-50 28 4 40 63 19 95 -17 26 -41 30 -49 9z m46 -62 c0 -27 -10 -36 -27 -23
-14 12 -19 44 -4 35 4 -3 6 7 3 22 -4 26 -4 26 12 7 8 -11 16 -29 16 -41z"/>
<path d="M3199 888 c-1 -7 0 -25 1 -40 1 -14 -4 -29 -9 -33 -17 -10 8 -211 30
-240 6 -9 1 -41 -17 -112 -1 -6 -16 -14 -33 -18 -18 -4 -31 -13 -31 -22 0 -8
-11 -24 -25 -35 -14 -11 -25 -28 -23 -38 4 -21 -74 -107 -137 -150 -24 -17
-49 -39 -55 -50 -17 -32 7 -33 51 0 23 16 50 30 61 30 26 0 98 69 146 141 22
33 59 74 81 90 23 16 41 34 41 39 0 5 22 21 49 35 27 13 52 33 55 42 4 10 29
31 57 48 28 16 58 39 67 50 17 19 17 19 -11 1 -16 -10 -31 -15 -34 -13 -3 3 8
12 25 21 16 8 33 12 36 8 9 -8 27 19 20 30 -6 9 -52 -10 -79 -33 -22 -18 -88
-53 -121 -63 -16 -5 -24 1 -37 29 -9 20 -17 53 -17 73 0 21 -6 46 -14 57 -7
11 -23 50 -35 87 -22 65 -40 94 -42 66z m53 -172 c-3 -5 0 -6 6 -2 12 7 17
-23 13 -66 -1 -9 4 -27 12 -40 8 -13 13 -35 12 -50 -4 -28 11 -37 31 -20 23
21 124 71 124 62 0 -5 -14 -17 -32 -26 -17 -9 -42 -29 -55 -45 -14 -16 -32
-29 -41 -29 -10 0 -28 -14 -41 -31 -13 -17 -44 -44 -68 -60 -23 -17 -43 -35
-43 -41 0 -19 -71 -108 -86 -108 -9 0 -13 -4 -10 -9 8 -13 -40 -53 -67 -56
-25 -3 -67 -25 -67 -36 0 -4 -7 -10 -16 -13 -14 -5 -15 -4 -4 9 20 24 79 57
90 50 5 -3 7 0 5 7 -3 8 17 35 45 62 30 28 50 56 48 66 -3 18 18 50 34 50 6 0
4 -8 -3 -17 -13 -16 -12 -17 3 -4 10 7 16 17 13 21 -3 5 -1 11 5 15 6 4 8 11
5 16 -4 5 7 12 24 15 25 5 31 12 32 33 0 14 4 35 8 46 8 19 8 19 19 0 6 -11
12 -15 12 -8 0 6 -4 15 -10 18 -5 3 -10 19 -10 36 0 16 -4 29 -8 29 -13 0 -36
163 -28 196 4 16 7 40 7 54 0 14 11 -6 24 -45 13 -38 21 -74 17 -79z"/>
<path d="M3257 471 c-4 -17 -3 -21 5 -13 5 5 8 16 6 23 -3 8 -7 3 -11 -10z"/>
<path d="M1093 882 c-20 -3 -23 -10 -23 -45 0 -23 -11 -82 -24 -132 -16 -60
-21 -93 -15 -100 7 -7 15 -3 26 10 l15 20 -6 -20 c-3 -11 -8 -53 -11 -94 -3
-40 -10 -82 -16 -93 -12 -22 -4 -68 11 -68 13 0 36 56 45 108 11 66 54 61 71
-8 4 -14 12 -32 19 -40 16 -21 52 -99 60 -133 8 -32 16 -34 38 -9 15 16 15 23
1 72 -37 132 -49 162 -63 168 -19 6 -46 37 -66 74 -15 27 -15 28 20 42 24 10
39 25 46 46 6 16 15 30 20 30 10 0 89 81 89 92 0 17 -31 6 -72 -26 -24 -19
-64 -46 -89 -60 l-46 -25 2 95 c2 52 0 95 -4 97 -3 2 -16 1 -28 -1z m17 -39
c0 -15 -4 -22 -11 -17 -7 4 -6 -3 2 -17 7 -13 12 -50 11 -81 -1 -32 1 -58 3
-58 3 0 23 11 45 25 22 14 42 25 46 25 3 0 26 17 52 38 38 31 43 33 29 11 -10
-14 -28 -32 -42 -39 -14 -7 -27 -21 -30 -32 -4 -10 -13 -25 -22 -33 -12 -13
-18 -13 -31 -3 -13 11 -14 11 -8 0 5 -8 2 -18 -7 -25 -15 -12 -31 -61 -17 -52
4 2 19 -13 34 -35 14 -22 32 -40 39 -40 15 0 38 -52 55 -120 6 -25 13 -52 17
-61 4 -10 0 -19 -9 -22 -11 -4 -13 0 -10 19 3 15 1 23 -5 20 -9 -6 -50 68 -57
102 -3 16 -53 90 -66 98 -4 3 -8 1 -8 -5 0 -5 -8 -12 -18 -15 -12 -4 -19 -17
-20 -40 -3 -39 -31 -122 -31 -91 0 28 22 127 32 142 6 9 3 11 -9 6 -14 -5 -15
-3 -5 15 13 25 15 79 2 87 -6 3 -15 -3 -21 -12 -10 -15 -11 -14 -5 7 3 14 8
37 12 53 5 23 8 26 22 15 14 -11 14 -11 5 2 -16 22 -6 157 12 157 8 0 14 -10
14 -24z"/>
<path d="M1180 680 c-9 -6 -10 -10 -3 -10 6 0 15 5 18 10 8 12 4 12 -15 0z"/>
<path d="M1096 607 c3 -10 9 -15 12 -12 3 3 0 11 -7 18 -10 9 -11 8 -5 -6z"/>
<path d="M1160 520 c0 -5 5 -10 11 -10 5 0 7 5 4 10 -3 6 -8 10 -11 10 -2 0
-4 -4 -4 -10z"/>
<path d="M3011 813 c-10 -21 -27 -72 -37 -114 -16 -70 -19 -76 -53 -90 l-36
-16 36 -18 37 -18 -4 -138 c-3 -125 3 -168 21 -139 3 6 15 67 26 137 11 70 21
128 22 129 1 1 26 -2 56 -8 55 -10 70 -3 71 29 0 11 -86 43 -117 43 -16 0 -16
5 -2 50 6 19 12 58 15 85 2 28 5 61 6 74 5 39 -19 35 -41 -6z m39 13 c0 -3 -4
-8 -10 -11 -5 -3 -10 -1 -10 4 0 6 5 11 10 11 6 0 10 -2 10 -4z m-26 -90 c-1
-35 -7 -73 -13 -84 -18 -34 -13 -52 14 -52 14 0 25 -4 25 -9 0 -5 8 -7 19 -4
10 3 22 0 25 -6 4 -6 16 -11 27 -11 16 0 18 -2 7 -14 -9 -9 -18 -11 -30 -5 -9
5 -21 8 -25 7 -4 -1 -19 2 -32 6 -32 11 -40 0 -46 -64 -10 -105 -21 -179 -25
-184 -7 -6 -3 189 5 222 4 21 1 33 -11 43 -11 9 -15 9 -10 2 5 -9 2 -11 -8 -7
-22 9 -20 24 4 24 20 0 31 29 45 120 6 39 21 80 28 80 1 0 1 -29 1 -64z"/>
<path d="M2726 753 c-14 -99 -16 -152 -8 -157 5 -3 9 -44 7 -91 -1 -61 2 -88
11 -96 10 -8 15 -8 18 2 2 8 9 34 16 59 l12 45 28 -33 c15 -18 30 -48 33 -65
9 -52 25 -87 42 -87 12 0 14 11 8 63 -3 34 -12 74 -19 89 -8 15 -14 33 -14 41
0 8 -9 25 -19 39 l-19 24 44 23 c49 26 53 40 30 106 -12 34 -20 41 -51 49 -31
7 -40 5 -60 -14 l-23 -22 -4 28 c-5 42 -25 41 -32 -3z m144 -22 c0 -9 7 -27
16 -39 21 -31 13 -47 -36 -72 -45 -23 -50 -40 -20 -70 11 -11 20 -31 20 -44 0
-14 5 -28 10 -31 6 -3 10 -21 10 -38 0 -18 4 -48 10 -66 5 -19 6 -30 1 -25 -5
5 -14 32 -20 61 -9 47 -20 67 -56 107 -6 6 -11 22 -12 35 -4 51 -33 36 -34
-17 0 -20 -4 -55 -9 -77 -7 -35 -8 -30 -8 35 0 41 5 83 10 94 7 12 7 16 0 12
-5 -3 -12 0 -15 7 -7 19 -6 32 4 29 5 -1 4 6 -2 16 -7 12 -9 31 -5 48 7 26 9
27 18 10 9 -16 12 -15 29 13 15 25 24 30 54 29 25 -1 35 -6 35 -17z"/>
<path d="M2805 730 c-3 -6 1 -7 9 -4 18 7 21 14 7 14 -6 0 -13 -4 -16 -10z"/>
<path d="M2782 683 c-12 -16 -18 -29 -13 -31 6 -2 7 -11 4 -20 -3 -9 -3 -14 2
-10 4 4 14 3 21 -3 9 -7 16 -4 26 10 8 12 17 19 19 17 2 -2 5 11 6 30 1 29 -2
34 -21 34 -12 0 -32 -12 -44 -27z m34 -40 c-5 -12 -9 -13 -21 -3 -14 11 -14
15 2 33 16 17 18 17 21 3 2 -10 1 -24 -2 -33z"/>
<path d="M703 740 c-20 -8 -21 -14 -18 -102 4 -131 16 -237 27 -244 19 -12 27
12 32 86 3 42 8 83 12 93 3 9 1 23 -5 30 -6 8 -10 39 -9 70 2 64 -7 79 -39 67z
m25 -44 c1 -19 -2 -37 -8 -41 -7 -4 -7 -12 0 -26 6 -11 8 -25 4 -31 -4 -6 -3
-8 3 -5 6 4 9 -17 9 -53 -1 -55 -9 -80 -21 -68 -9 9 -22 216 -15 226 2 1 4 7
5 12 1 6 3 12 4 15 0 3 5 5 9 5 4 0 9 -15 10 -34z"/>
<path d="M881 711 c-17 -17 -35 -31 -40 -31 -4 0 -13 -19 -20 -42 -7 -24 -20
-58 -29 -77 -12 -24 -14 -35 -6 -38 7 -2 10 -13 7 -24 -4 -14 0 -22 13 -25 19
-5 44 -46 44 -71 0 -23 19 -14 35 17 9 17 23 30 33 30 10 0 22 4 28 9 5 5 20
11 34 13 16 2 26 10 28 24 3 18 -2 21 -30 22 -18 0 -42 1 -53 2 -11 0 -31 -2
-44 -5 -20 -5 -22 -3 -15 12 4 10 8 32 8 49 1 30 60 112 78 107 4 -2 19 2 33
7 34 13 33 40 -2 40 -16 0 -38 3 -49 6 -15 4 -31 -3 -53 -25z m109 -3 c0 -5
-12 -9 -27 -9 -54 -2 -58 -4 -55 -23 3 -16 -34 -54 -48 -49 -11 3 -9 -42 2
-48 9 -6 9 -11 1 -21 -6 -7 -13 -24 -15 -38 -2 -17 -10 -25 -25 -26 -19 -1
-20 1 -10 23 8 19 8 26 -2 32 -8 5 -9 11 -3 15 5 3 15 29 22 57 10 39 16 49
28 44 9 -3 13 -3 10 1 -4 3 4 16 18 29 17 16 35 22 64 21 22 0 40 -4 40 -8z
m-31 -212 c9 -11 6 -15 -16 -21 -16 -5 -31 -8 -36 -7 -4 1 -17 -13 -28 -30
l-21 -33 5 28 c2 15 0 30 -6 34 -6 3 -7 1 -3 -5 4 -7 2 -12 -4 -12 -6 0 -10
10 -8 23 2 17 9 22 30 21 15 0 25 4 22 8 -9 14 53 9 65 -6z m41 0 c0 -3 -4 -8
-10 -11 -5 -3 -10 -1 -10 4 0 6 5 11 10 11 6 0 10 -2 10 -4z"/>
<path d="M1791 718 c-4 -13 -14 -47 -21 -75 -9 -33 -25 -63 -43 -80 l-29 -28
7 68 c6 57 5 67 -8 67 -10 0 -21 -15 -28 -40 -10 -33 -15 -38 -29 -30 -10 5
-21 21 -24 35 -4 14 -13 25 -21 25 -11 0 -15 -12 -15 -49 0 -48 -13 -74 -23
-48 -3 8 -8 39 -12 69 -9 70 -21 91 -38 64 -7 -11 -20 -28 -30 -39 -11 -11
-22 -44 -27 -77 -4 -32 -13 -66 -18 -77 -13 -23 -4 -73 14 -73 7 0 19 21 26
47 7 25 18 48 24 50 5 2 19 -19 31 -47 12 -27 26 -50 31 -50 5 0 13 26 17 58
18 139 22 166 24 145 1 -23 49 -75 65 -70 5 2 10 15 12 30 1 14 8 34 14 44 9
15 10 12 5 -17 -3 -19 -9 -59 -12 -87 -3 -29 -10 -50 -15 -47 -4 3 -5 10 -2
16 4 6 3 8 -3 5 -5 -3 -17 10 -28 29 -10 19 -22 34 -27 34 -4 0 -8 -21 -9 -47
0 -36 -3 -43 -9 -28 -8 19 -9 19 -9 -2 -1 -12 3 -24 8 -27 15 -10 29 17 25 49
l-3 30 19 -25 c11 -14 22 -33 26 -43 3 -10 11 -16 17 -15 7 1 23 -4 36 -11 13
-7 36 -10 52 -7 21 4 29 2 29 -8 0 -20 30 -29 37 -11 3 9 2 28 -2 43 -9 32
-10 90 -2 195 4 63 3 77 -9 77 -8 0 -18 -10 -23 -22z m19 -27 c-4 -15 -4 -34
0 -42 5 -7 5 -20 0 -29 -11 -20 -16 -123 -6 -138 12 -19 16 -52 6 -52 -5 0
-10 10 -12 22 -2 13 -11 24 -22 26 -11 2 -16 0 -12 -6 9 -15 -11 -24 -34 -17
-32 10 -27 67 8 97 25 21 62 111 62 151 0 10 4 17 9 17 6 0 6 -12 1 -29z
m-277 -86 c8 -44 18 -98 21 -120 l6 -40 -16 28 c-9 18 -13 39 -10 55 5 20 4
23 -4 12 -11 -17 -12 -14 -14 47 -1 49 -17 59 -30 20 -8 -22 -6 -30 10 -42 10
-8 13 -15 7 -15 -11 0 -59 -80 -54 -88 2 -2 1 -5 -1 -7 -9 -9 -7 49 2 60 6 7
12 36 15 65 3 38 10 56 25 67 11 8 20 21 20 30 0 32 8 7 23 -72z"/>
<path d="M1752 541 c-7 -4 -16 -21 -21 -39 -8 -26 -7 -30 7 -25 28 10 42 25
42 44 0 22 -12 30 -28 20z m13 -30 c-3 -6 -11 -11 -17 -11 -6 0 -6 6 2 15 14
17 26 13 15 -4z"/>
<path d="M2540 703 c-47 -52 -73 -109 -60 -133 6 -10 10 -37 10 -59 0 -23 5
-41 11 -41 6 0 24 -9 40 -21 24 -17 34 -18 64 -10 56 15 101 80 82 116 -6 11
-11 49 -11 83 -1 54 -4 67 -25 83 -37 30 -72 24 -111 -18z m102 -8 c-2 -9 1
-14 6 -11 15 9 23 -39 12 -70 -8 -21 -7 -32 6 -52 13 -19 14 -30 5 -48 -6 -13
-15 -24 -21 -24 -5 0 -10 -6 -10 -14 0 -8 -7 -17 -16 -20 -24 -9 -64 -7 -64 3
0 5 -13 12 -30 16 -25 6 -29 11 -29 38 1 18 -2 46 -5 64 -3 17 -2 35 4 38 5 3
10 15 10 26 0 11 8 23 18 26 18 7 42 28 39 34 -1 3 4 -3 12 -11 12 -13 13 -13
7 4 -8 24 10 37 38 26 12 -4 20 -15 18 -25z"/>
<path d="M2550 651 c0 -10 -7 -35 -15 -55 -15 -36 -15 -37 11 -61 14 -13 23
-28 20 -34 -4 -5 -1 -13 5 -17 8 -5 9 -3 4 6 -6 10 -2 12 16 8 24 -4 25 -2 25
53 0 39 -4 60 -13 63 -21 8 -16 36 5 29 14 -5 13 -3 -3 10 -28 22 -55 21 -55
-2z m25 -12 c-4 -5 0 -18 8 -27 13 -15 23 -102 12 -102 -8 0 -55 51 -55 59 0
14 30 81 36 81 3 0 2 -5 -1 -11z"/>
<path d="M2627 587 c-3 -8 1 -14 8 -14 7 0 11 6 8 14 -3 7 -6 13 -8 13 -2 0
-5 -6 -8 -13z"/>
</g>
</svg>
